<mxfile host="app.diagrams.net" modified="2023-07-10T13:59:05.536Z" agent="Mozilla/5.0 (X11; Linux x86_64; rv:109.0) Gecko/20100101 Firefox/110.0" etag="3pofN8KGqCqTogrb1yNR" version="21.5.2" type="device">
  <diagram name="Page-1" id="qexW0GoM9GMoykkjlQxq">
    <mxGraphModel dx="1402" dy="730" grid="1" gridSize="10" guides="1" tooltips="1" connect="1" arrows="1" fold="1" page="1" pageScale="1" pageWidth="850" pageHeight="1100" math="0" shadow="0">
      <root>
        <mxCell id="0" />
        <mxCell id="1" parent="0" />
        <mxCell id="PtrqWuawoQSoD1VGYV8C-43" value="A" style="whiteSpace=wrap;html=1;aspect=fixed;fillColor=#b1ddf0;strokeColor=#10739e;" vertex="1" parent="1">
          <mxGeometry x="56" y="60" width="80" height="80" as="geometry" />
        </mxCell>
        <mxCell id="PtrqWuawoQSoD1VGYV8C-44" value="B" style="whiteSpace=wrap;html=1;aspect=fixed;fillColor=#b0e3e6;strokeColor=#0e8088;" vertex="1" parent="1">
          <mxGeometry x="300" y="60" width="80" height="80" as="geometry" />
        </mxCell>
        <mxCell id="PtrqWuawoQSoD1VGYV8C-45" value="D" style="whiteSpace=wrap;html=1;aspect=fixed;fillColor=#b0e3e6;strokeColor=#0e8088;" vertex="1" parent="1">
          <mxGeometry x="50" y="280" width="80" height="80" as="geometry" />
        </mxCell>
        <mxCell id="PtrqWuawoQSoD1VGYV8C-46" value="C" style="whiteSpace=wrap;html=1;aspect=fixed;fillColor=#b0e3e6;strokeColor=#0e8088;" vertex="1" parent="1">
          <mxGeometry x="300" y="280" width="80" height="80" as="geometry" />
        </mxCell>
        <mxCell id="PtrqWuawoQSoD1VGYV8C-63" value="&lt;div&gt;&lt;ol&gt;&lt;li&gt;A proposes a value 5. A triggers the &amp;lt;ep.ets, Propose | 5&amp;gt; event received by the epoch consensus layer from the uniform consensus layer.&lt;/li&gt;&lt;li&gt;A triggers a broadcast with a READ message, setting its tmpval variable to 5. &lt;br&gt;&lt;/li&gt;&lt;li&gt;Processes send their own state (i.e. the value and associated timestamp that they proposed.&lt;/li&gt;&lt;li&gt;Leader A delivers the states of the processes and saves them in the states list. If the number of received state messages reach a majority, the (timestamp, value) pair with the highest/most recent timestamp is chosen and saved in the tmpval if value is not null. States are reset and a WRITE message containing the tmpval is broadcasted.&lt;/li&gt;&lt;li&gt;Processes deliver the WRITE message and set their current (valts, val) pair to the values contained within the message, then send an ACCEPT message as acknowledgment.&lt;/li&gt;&lt;li&gt;Leader A delivers ACCEPT messages and increases the accept counter. If the no. of accept messages reaches a majority, the counter is reset and a DECIDED message containing the tmpval is broadcasted.&lt;/li&gt;&lt;li&gt;Processes deliver the DECIDED message and trigger an &amp;lt;ep, Decide | 5&amp;gt; event. &lt;br&gt;&lt;/li&gt;&lt;li&gt;The uniform consensus layer switches the &quot;decided&quot; variable from false to true and triggers the &amp;lt;uc, Decide | 5&amp;gt; event.&lt;/li&gt;&lt;li&gt;&lt;i&gt;&lt;b&gt;If leader A crashes, a StartEpoch event is triggered with another process as leader. The (newts, newl) pair is updated to the values from the event message and an &amp;lt;ep.ets, Abort&amp;gt; event is triggered.&lt;/b&gt;&lt;/i&gt;&lt;/li&gt;&lt;li&gt;&lt;i&gt;&lt;b&gt;The epoch consensus (EP) layer receives the event, triggers and &amp;lt;ep, Aborted | (valts, val)&amp;gt; event and halts the execution.&lt;/b&gt;&lt;/i&gt;&lt;/li&gt;&lt;li&gt;&lt;i&gt;&lt;b&gt;The new leader UC layer delivers the Aborted event, updates the (ets, l) pair with the (newts, newl) values and switches the proposed boolean to FALSE, then initializes a new epoch consensus (EP) layer with the newly set (ets, l) values and the old state.&lt;/b&gt;&lt;/i&gt;&lt;br&gt;&lt;/li&gt;&lt;/ol&gt;&lt;/div&gt;" style="text;html=1;strokeColor=none;fillColor=none;align=left;verticalAlign=middle;whiteSpace=wrap;rounded=0;" vertex="1" parent="1">
          <mxGeometry x="420" y="230" width="390" height="110" as="geometry" />
        </mxCell>
        <mxCell id="PtrqWuawoQSoD1VGYV8C-137" value="" style="curved=1;endArrow=classic;html=1;rounded=0;entryX=0;entryY=0;entryDx=0;entryDy=0;exitX=0;exitY=0.25;exitDx=0;exitDy=0;" edge="1" parent="1" source="PtrqWuawoQSoD1VGYV8C-43" target="PtrqWuawoQSoD1VGYV8C-43">
          <mxGeometry width="50" height="50" relative="1" as="geometry">
            <mxPoint x="150" y="220" as="sourcePoint" />
            <mxPoint x="200" y="170" as="targetPoint" />
            <Array as="points">
              <mxPoint x="20" y="70" />
              <mxPoint x="10" y="50" />
              <mxPoint x="30" y="40" />
            </Array>
          </mxGeometry>
        </mxCell>
        <mxCell id="PtrqWuawoQSoD1VGYV8C-138" value="1." style="edgeLabel;html=1;align=center;verticalAlign=middle;resizable=0;points=[];" vertex="1" connectable="0" parent="PtrqWuawoQSoD1VGYV8C-137">
          <mxGeometry x="0.0593" y="-2" relative="1" as="geometry">
            <mxPoint as="offset" />
          </mxGeometry>
        </mxCell>
        <mxCell id="PtrqWuawoQSoD1VGYV8C-139" value="2." style="endArrow=classic;html=1;rounded=0;exitX=1;exitY=0;exitDx=0;exitDy=0;entryX=0;entryY=0;entryDx=0;entryDy=0;" edge="1" parent="1" source="PtrqWuawoQSoD1VGYV8C-43" target="PtrqWuawoQSoD1VGYV8C-44">
          <mxGeometry width="50" height="50" relative="1" as="geometry">
            <mxPoint x="150" y="220" as="sourcePoint" />
            <mxPoint x="200" y="170" as="targetPoint" />
          </mxGeometry>
        </mxCell>
        <mxCell id="PtrqWuawoQSoD1VGYV8C-140" value="2." style="endArrow=classic;html=1;rounded=0;exitX=1;exitY=1;exitDx=0;exitDy=0;entryX=0;entryY=0;entryDx=0;entryDy=0;" edge="1" parent="1" source="PtrqWuawoQSoD1VGYV8C-43" target="PtrqWuawoQSoD1VGYV8C-46">
          <mxGeometry width="50" height="50" relative="1" as="geometry">
            <mxPoint x="146" y="70" as="sourcePoint" />
            <mxPoint x="310" y="70" as="targetPoint" />
          </mxGeometry>
        </mxCell>
        <mxCell id="PtrqWuawoQSoD1VGYV8C-141" value="2." style="endArrow=classic;html=1;rounded=0;exitX=0;exitY=1;exitDx=0;exitDy=0;entryX=0;entryY=0;entryDx=0;entryDy=0;" edge="1" parent="1" source="PtrqWuawoQSoD1VGYV8C-43" target="PtrqWuawoQSoD1VGYV8C-45">
          <mxGeometry width="50" height="50" relative="1" as="geometry">
            <mxPoint x="146" y="150" as="sourcePoint" />
            <mxPoint x="310" y="290" as="targetPoint" />
          </mxGeometry>
        </mxCell>
        <mxCell id="PtrqWuawoQSoD1VGYV8C-142" value="3." style="endArrow=classic;html=1;rounded=0;entryX=0.113;entryY=1.013;entryDx=0;entryDy=0;entryPerimeter=0;" edge="1" parent="1" target="PtrqWuawoQSoD1VGYV8C-43">
          <mxGeometry width="50" height="50" relative="1" as="geometry">
            <mxPoint x="60" y="280" as="sourcePoint" />
            <mxPoint x="66" y="150" as="targetPoint" />
          </mxGeometry>
        </mxCell>
        <mxCell id="PtrqWuawoQSoD1VGYV8C-143" value="3." style="endArrow=classic;html=1;rounded=0;exitX=0;exitY=0.25;exitDx=0;exitDy=0;entryX=0.75;entryY=1;entryDx=0;entryDy=0;" edge="1" parent="1" source="PtrqWuawoQSoD1VGYV8C-46" target="PtrqWuawoQSoD1VGYV8C-43">
          <mxGeometry width="50" height="50" relative="1" as="geometry">
            <mxPoint x="290" y="290" as="sourcePoint" />
            <mxPoint x="125" y="145" as="targetPoint" />
          </mxGeometry>
        </mxCell>
        <mxCell id="PtrqWuawoQSoD1VGYV8C-145" value="3." style="endArrow=classic;html=1;rounded=0;exitX=-0.037;exitY=0.163;exitDx=0;exitDy=0;entryX=1.025;entryY=0.163;entryDx=0;entryDy=0;entryPerimeter=0;exitPerimeter=0;" edge="1" parent="1" source="PtrqWuawoQSoD1VGYV8C-44" target="PtrqWuawoQSoD1VGYV8C-43">
          <mxGeometry width="50" height="50" relative="1" as="geometry">
            <mxPoint x="310" y="310" as="sourcePoint" />
            <mxPoint x="126" y="150" as="targetPoint" />
          </mxGeometry>
        </mxCell>
        <mxCell id="PtrqWuawoQSoD1VGYV8C-146" value="4." style="endArrow=classic;html=1;rounded=0;exitX=1.013;exitY=0.338;exitDx=0;exitDy=0;entryX=-0.05;entryY=0.35;entryDx=0;entryDy=0;entryPerimeter=0;exitPerimeter=0;" edge="1" parent="1" source="PtrqWuawoQSoD1VGYV8C-43" target="PtrqWuawoQSoD1VGYV8C-44">
          <mxGeometry width="50" height="50" relative="1" as="geometry">
            <mxPoint x="190" y="220" as="sourcePoint" />
            <mxPoint x="240" y="170" as="targetPoint" />
          </mxGeometry>
        </mxCell>
        <mxCell id="PtrqWuawoQSoD1VGYV8C-147" value="4." style="endArrow=classic;html=1;rounded=0;entryX=0.138;entryY=-0.012;entryDx=0;entryDy=0;entryPerimeter=0;" edge="1" parent="1" target="PtrqWuawoQSoD1VGYV8C-46">
          <mxGeometry width="50" height="50" relative="1" as="geometry">
            <mxPoint x="140" y="130" as="sourcePoint" />
            <mxPoint x="306" y="98" as="targetPoint" />
          </mxGeometry>
        </mxCell>
        <mxCell id="PtrqWuawoQSoD1VGYV8C-148" value="4." style="endArrow=classic;html=1;rounded=0;entryX=0.25;entryY=0;entryDx=0;entryDy=0;exitX=0.25;exitY=1;exitDx=0;exitDy=0;" edge="1" parent="1" source="PtrqWuawoQSoD1VGYV8C-43" target="PtrqWuawoQSoD1VGYV8C-45">
          <mxGeometry width="50" height="50" relative="1" as="geometry">
            <mxPoint x="150" y="140" as="sourcePoint" />
            <mxPoint x="321" y="289" as="targetPoint" />
          </mxGeometry>
        </mxCell>
        <mxCell id="PtrqWuawoQSoD1VGYV8C-150" value="5." style="endArrow=classic;html=1;rounded=0;entryX=0.363;entryY=1.025;entryDx=0;entryDy=0;entryPerimeter=0;" edge="1" parent="1" target="PtrqWuawoQSoD1VGYV8C-43">
          <mxGeometry width="50" height="50" relative="1" as="geometry">
            <mxPoint x="80" y="280" as="sourcePoint" />
            <mxPoint x="86" y="150" as="targetPoint" />
          </mxGeometry>
        </mxCell>
        <mxCell id="PtrqWuawoQSoD1VGYV8C-151" value="5." style="endArrow=classic;html=1;rounded=0;exitX=-0.075;exitY=0.35;exitDx=0;exitDy=0;exitPerimeter=0;" edge="1" parent="1" source="PtrqWuawoQSoD1VGYV8C-46">
          <mxGeometry width="50" height="50" relative="1" as="geometry">
            <mxPoint x="90" y="290" as="sourcePoint" />
            <mxPoint x="110" y="150" as="targetPoint" />
          </mxGeometry>
        </mxCell>
        <mxCell id="PtrqWuawoQSoD1VGYV8C-152" value="5." style="endArrow=classic;html=1;rounded=0;exitX=0;exitY=0.5;exitDx=0;exitDy=0;entryX=1;entryY=0.5;entryDx=0;entryDy=0;" edge="1" parent="1" source="PtrqWuawoQSoD1VGYV8C-44" target="PtrqWuawoQSoD1VGYV8C-43">
          <mxGeometry width="50" height="50" relative="1" as="geometry">
            <mxPoint x="304" y="318" as="sourcePoint" />
            <mxPoint x="120" y="160" as="targetPoint" />
          </mxGeometry>
        </mxCell>
        <mxCell id="PtrqWuawoQSoD1VGYV8C-153" value="6." style="endArrow=classic;html=1;rounded=0;exitX=0.988;exitY=0.663;exitDx=0;exitDy=0;exitPerimeter=0;entryX=-0.05;entryY=0.663;entryDx=0;entryDy=0;entryPerimeter=0;" edge="1" parent="1" source="PtrqWuawoQSoD1VGYV8C-43" target="PtrqWuawoQSoD1VGYV8C-44">
          <mxGeometry width="50" height="50" relative="1" as="geometry">
            <mxPoint x="190" y="220" as="sourcePoint" />
            <mxPoint x="240" y="170" as="targetPoint" />
          </mxGeometry>
        </mxCell>
        <mxCell id="PtrqWuawoQSoD1VGYV8C-154" value="6." style="endArrow=classic;html=1;rounded=0;exitX=0.988;exitY=0.663;exitDx=0;exitDy=0;exitPerimeter=0;entryX=0.363;entryY=-0.05;entryDx=0;entryDy=0;entryPerimeter=0;" edge="1" parent="1" target="PtrqWuawoQSoD1VGYV8C-46">
          <mxGeometry width="50" height="50" relative="1" as="geometry">
            <mxPoint x="145" y="123" as="sourcePoint" />
            <mxPoint x="306" y="123" as="targetPoint" />
          </mxGeometry>
        </mxCell>
        <mxCell id="PtrqWuawoQSoD1VGYV8C-155" value="6." style="endArrow=classic;html=1;rounded=0;exitX=0.5;exitY=1;exitDx=0;exitDy=0;" edge="1" parent="1" source="PtrqWuawoQSoD1VGYV8C-43">
          <mxGeometry width="50" height="50" relative="1" as="geometry">
            <mxPoint x="95" y="152" as="sourcePoint" />
            <mxPoint x="90" y="280" as="targetPoint" />
          </mxGeometry>
        </mxCell>
        <mxCell id="PtrqWuawoQSoD1VGYV8C-159" value="" style="curved=1;endArrow=classic;html=1;rounded=0;entryX=0;entryY=0;entryDx=0;entryDy=0;exitX=0;exitY=0.25;exitDx=0;exitDy=0;" edge="1" parent="1">
          <mxGeometry width="50" height="50" relative="1" as="geometry">
            <mxPoint x="129" y="344" as="sourcePoint" />
            <mxPoint x="129" y="324" as="targetPoint" />
            <Array as="points">
              <mxPoint x="165" y="334" />
              <mxPoint x="175" y="314" />
              <mxPoint x="155" y="304" />
            </Array>
          </mxGeometry>
        </mxCell>
        <mxCell id="PtrqWuawoQSoD1VGYV8C-160" value="7, 8." style="edgeLabel;html=1;align=center;verticalAlign=middle;resizable=0;points=[];" vertex="1" connectable="0" parent="PtrqWuawoQSoD1VGYV8C-159">
          <mxGeometry x="0.0593" y="-2" relative="1" as="geometry">
            <mxPoint as="offset" />
          </mxGeometry>
        </mxCell>
        <mxCell id="PtrqWuawoQSoD1VGYV8C-161" value="" style="curved=1;endArrow=classic;html=1;rounded=0;entryX=0;entryY=0;entryDx=0;entryDy=0;exitX=0;exitY=0.25;exitDx=0;exitDy=0;" edge="1" parent="1">
          <mxGeometry width="50" height="50" relative="1" as="geometry">
            <mxPoint x="301" y="340" as="sourcePoint" />
            <mxPoint x="301" y="320" as="targetPoint" />
            <Array as="points">
              <mxPoint x="265" y="330" />
              <mxPoint x="255" y="310" />
              <mxPoint x="275" y="300" />
            </Array>
          </mxGeometry>
        </mxCell>
        <mxCell id="PtrqWuawoQSoD1VGYV8C-162" value="7, 8." style="edgeLabel;html=1;align=center;verticalAlign=middle;resizable=0;points=[];" vertex="1" connectable="0" parent="PtrqWuawoQSoD1VGYV8C-161">
          <mxGeometry x="0.0593" y="-2" relative="1" as="geometry">
            <mxPoint as="offset" />
          </mxGeometry>
        </mxCell>
        <mxCell id="PtrqWuawoQSoD1VGYV8C-163" value="" style="curved=1;endArrow=classic;html=1;rounded=0;entryX=0;entryY=0;entryDx=0;entryDy=0;exitX=0;exitY=0.25;exitDx=0;exitDy=0;" edge="1" parent="1">
          <mxGeometry width="50" height="50" relative="1" as="geometry">
            <mxPoint x="380" y="110" as="sourcePoint" />
            <mxPoint x="380" y="90" as="targetPoint" />
            <Array as="points">
              <mxPoint x="416" y="100" />
              <mxPoint x="426" y="80" />
              <mxPoint x="406" y="70" />
            </Array>
          </mxGeometry>
        </mxCell>
        <mxCell id="PtrqWuawoQSoD1VGYV8C-164" value="7, 8." style="edgeLabel;html=1;align=center;verticalAlign=middle;resizable=0;points=[];" vertex="1" connectable="0" parent="PtrqWuawoQSoD1VGYV8C-163">
          <mxGeometry x="0.0593" y="-2" relative="1" as="geometry">
            <mxPoint as="offset" />
          </mxGeometry>
        </mxCell>
      </root>
    </mxGraphModel>
  </diagram>
</mxfile>
